<svg width="512" height="512" viewBox="0 0 512 512" fill="none" xmlns="http://www.w3.org/2000/svg">
  <!-- Professional Mechanic Logo Placeholder -->
  <rect width="512" height="512" rx="80" fill="url(#gradient)"/>
  <defs>
    <linearGradient id="gradient" x1="0" y1="0" x2="512" y2="512">
      <stop offset="0%" style="stop-color:#1a1a1a;stop-opacity:1" />
      <stop offset="100%" style="stop-color:#2d2d2d;stop-opacity:1" />
    </linearGradient>
  </defs>
  
  <!-- Wrench Icon -->
  <path d="M380 256c0-38.4-17.6-73.6-48-96l-32 32c-8 8-8 16-8 32v64c0 17.6 14.4 32 32 32s32-14.4 32-32v-32zm-224 0c0 17.6-14.4 32-32 32s-32-14.4-32-32v-32c0-16 0-24 8-32l32-32c-30.4 22.4-48 57.6-48 96 0 68.8 55.2 124 124 124h32c68.8 0 124-55.2 124-124 0-38.4-17.6-73.6-48-96l-32 32c-8 8-8 16-8 32v64c0 17.6 14.4 32 32 32s32-14.4 32-32c0-68.8-55.2-124-124-124h-32c-68.8 0-124 55.2-124 124z" 
        fill="white" 
        opacity="0.9"/>
  
  <!-- Gear accent -->
  <circle cx="256" cy="180" r="24" fill="white" opacity="0.6"/>
</svg>
